<?xml version="1.0" encoding="UTF-8"?>
<?xml-stylesheet href="https://cdnjs.cloudflare.com/ajax/libs/font-awesome/6.6.0/css/all.min.css" type="text/css"?>
<svg aria-roledescription="timeline" role="graphics-document document" viewBox="0 -61.19999980926514 5390 632.7999877929688" style="max-width: 100%;" xmlns="http://www.w3.org/2000/svg" width="100%" id="graph-div" height="100%" xmlns:xlink="http://www.w3.org/1999/xlink"><style>#graph-div{font-family:"trebuchet ms",verdana,arial,sans-serif;font-size:16px;fill:#ccc;}#graph-div .error-icon{fill:#a44141;}#graph-div .error-text{fill:#ddd;stroke:#ddd;}#graph-div .edge-thickness-normal{stroke-width:1px;}#graph-div .edge-thickness-thick{stroke-width:3.5px;}#graph-div .edge-pattern-solid{stroke-dasharray:0;}#graph-div .edge-thickness-invisible{stroke-width:0;fill:none;}#graph-div .edge-pattern-dashed{stroke-dasharray:3;}#graph-div .edge-pattern-dotted{stroke-dasharray:2;}#graph-div .marker{fill:lightgrey;stroke:lightgrey;}#graph-div .marker.cross{stroke:lightgrey;}#graph-div svg{font-family:"trebuchet ms",verdana,arial,sans-serif;font-size:16px;}#graph-div p{margin:0;}#graph-div .edge{stroke-width:3;}#graph-div .section--1 rect,#graph-div .section--1 path,#graph-div .section--1 circle,#graph-div .section--1 path{fill:#1f2020;}#graph-div .section--1 text{fill:lightgrey;}#graph-div .node-icon--1{font-size:40px;color:lightgrey;}#graph-div .section-edge--1{stroke:#1f2020;}#graph-div .edge-depth--1{stroke-width:17;}#graph-div .section--1 line{stroke:#e0dfdf;stroke-width:3;}#graph-div .lineWrapper line{stroke:lightgrey;}#graph-div .disabled,#graph-div .disabled circle,#graph-div .disabled text{fill:lightgray;}#graph-div .disabled text{fill:#efefef;}#graph-div .section-0 rect,#graph-div .section-0 path,#graph-div .section-0 circle,#graph-div .section-0 path{fill:#0b0000;}#graph-div .section-0 text{fill:lightgrey;}#graph-div .node-icon-0{font-size:40px;color:lightgrey;}#graph-div .section-edge-0{stroke:#0b0000;}#graph-div .edge-depth-0{stroke-width:14;}#graph-div .section-0 line{stroke:#f4ffff;stroke-width:3;}#graph-div .lineWrapper line{stroke:lightgrey;}#graph-div .disabled,#graph-div .disabled circle,#graph-div .disabled text{fill:lightgray;}#graph-div .disabled text{fill:#efefef;}#graph-div .section-1 rect,#graph-div .section-1 path,#graph-div .section-1 circle,#graph-div .section-1 path{fill:#4d1037;}#graph-div .section-1 text{fill:lightgrey;}#graph-div .node-icon-1{font-size:40px;color:lightgrey;}#graph-div .section-edge-1{stroke:#4d1037;}#graph-div .edge-depth-1{stroke-width:11;}#graph-div .section-1 line{stroke:#b2efc8;stroke-width:3;}#graph-div .lineWrapper line{stroke:lightgrey;}#graph-div .disabled,#graph-div .disabled circle,#graph-div .disabled text{fill:lightgray;}#graph-div .disabled text{fill:#efefef;}#graph-div .section-2 rect,#graph-div .section-2 path,#graph-div .section-2 circle,#graph-div .section-2 path{fill:#3f5258;}#graph-div .section-2 text{fill:lightgrey;}#graph-div .node-icon-2{font-size:40px;color:lightgrey;}#graph-div .section-edge-2{stroke:#3f5258;}#graph-div .edge-depth-2{stroke-width:8;}#graph-div .section-2 line{stroke:#c0ada7;stroke-width:3;}#graph-div .lineWrapper line{stroke:lightgrey;}#graph-div .disabled,#graph-div .disabled circle,#graph-div .disabled text{fill:lightgray;}#graph-div .disabled text{fill:#efefef;}#graph-div .section-3 rect,#graph-div .section-3 path,#graph-div .section-3 circle,#graph-div .section-3 path{fill:#4f2f1b;}#graph-div .section-3 text{fill:lightgrey;}#graph-div .node-icon-3{font-size:40px;color:lightgrey;}#graph-div .section-edge-3{stroke:#4f2f1b;}#graph-div .edge-depth-3{stroke-width:5;}#graph-div .section-3 line{stroke:#b0d0e4;stroke-width:3;}#graph-div .lineWrapper line{stroke:lightgrey;}#graph-div .disabled,#graph-div .disabled circle,#graph-div .disabled text{fill:lightgray;}#graph-div .disabled text{fill:#efefef;}#graph-div .section-4 rect,#graph-div .section-4 path,#graph-div .section-4 circle,#graph-div .section-4 path{fill:#6e0a0a;}#graph-div .section-4 text{fill:lightgrey;}#graph-div .node-icon-4{font-size:40px;color:lightgrey;}#graph-div .section-edge-4{stroke:#6e0a0a;}#graph-div .edge-depth-4{stroke-width:2;}#graph-div .section-4 line{stroke:#91f5f5;stroke-width:3;}#graph-div .lineWrapper line{stroke:lightgrey;}#graph-div .disabled,#graph-div .disabled circle,#graph-div .disabled text{fill:lightgray;}#graph-div .disabled text{fill:#efefef;}#graph-div .section-5 rect,#graph-div .section-5 path,#graph-div .section-5 circle,#graph-div .section-5 path{fill:#3b0048;}#graph-div .section-5 text{fill:lightgrey;}#graph-div .node-icon-5{font-size:40px;color:lightgrey;}#graph-div .section-edge-5{stroke:#3b0048;}#graph-div .edge-depth-5{stroke-width:-1;}#graph-div .section-5 line{stroke:#c4ffb7;stroke-width:3;}#graph-div .lineWrapper line{stroke:lightgrey;}#graph-div .disabled,#graph-div .disabled circle,#graph-div .disabled text{fill:lightgray;}#graph-div .disabled text{fill:#efefef;}#graph-div .section-6 rect,#graph-div .section-6 path,#graph-div .section-6 circle,#graph-div .section-6 path{fill:#995a01;}#graph-div .section-6 text{fill:lightgrey;}#graph-div .node-icon-6{font-size:40px;color:lightgrey;}#graph-div .section-edge-6{stroke:#995a01;}#graph-div .edge-depth-6{stroke-width:-4;}#graph-div .section-6 line{stroke:#66a5fe;stroke-width:3;}#graph-div .lineWrapper line{stroke:lightgrey;}#graph-div .disabled,#graph-div .disabled circle,#graph-div .disabled text{fill:lightgray;}#graph-div .disabled text{fill:#efefef;}#graph-div .section-7 rect,#graph-div .section-7 path,#graph-div .section-7 circle,#graph-div .section-7 path{fill:#154706;}#graph-div .section-7 text{fill:lightgrey;}#graph-div .node-icon-7{font-size:40px;color:lightgrey;}#graph-div .section-edge-7{stroke:#154706;}#graph-div .edge-depth-7{stroke-width:-7;}#graph-div .section-7 line{stroke:#eab8f9;stroke-width:3;}#graph-div .lineWrapper line{stroke:lightgrey;}#graph-div .disabled,#graph-div .disabled circle,#graph-div .disabled text{fill:lightgray;}#graph-div .disabled text{fill:#efefef;}#graph-div .section-8 rect,#graph-div .section-8 path,#graph-div .section-8 circle,#graph-div .section-8 path{fill:#161722;}#graph-div .section-8 text{fill:lightgrey;}#graph-div .node-icon-8{font-size:40px;color:lightgrey;}#graph-div .section-edge-8{stroke:#161722;}#graph-div .edge-depth-8{stroke-width:-10;}#graph-div .section-8 line{stroke:#e9e8dd;stroke-width:3;}#graph-div .lineWrapper line{stroke:lightgrey;}#graph-div .disabled,#graph-div .disabled circle,#graph-div .disabled text{fill:lightgray;}#graph-div .disabled text{fill:#efefef;}#graph-div .section-9 rect,#graph-div .section-9 path,#graph-div .section-9 circle,#graph-div .section-9 path{fill:#00296f;}#graph-div .section-9 text{fill:lightgrey;}#graph-div .node-icon-9{font-size:40px;color:lightgrey;}#graph-div .section-edge-9{stroke:#00296f;}#graph-div .edge-depth-9{stroke-width:-13;}#graph-div .section-9 line{stroke:#ffd690;stroke-width:3;}#graph-div .lineWrapper line{stroke:lightgrey;}#graph-div .disabled,#graph-div .disabled circle,#graph-div .disabled text{fill:lightgray;}#graph-div .disabled text{fill:#efefef;}#graph-div .section-10 rect,#graph-div .section-10 path,#graph-div .section-10 circle,#graph-div .section-10 path{fill:#01629c;}#graph-div .section-10 text{fill:lightgrey;}#graph-div .node-icon-10{font-size:40px;color:lightgrey;}#graph-div .section-edge-10{stroke:#01629c;}#graph-div .edge-depth-10{stroke-width:-16;}#graph-div .section-10 line{stroke:#fe9d63;stroke-width:3;}#graph-div .lineWrapper line{stroke:lightgrey;}#graph-div .disabled,#graph-div .disabled circle,#graph-div .disabled text{fill:lightgray;}#graph-div .disabled text{fill:#efefef;}#graph-div .section-root rect,#graph-div .section-root path,#graph-div .section-root circle{fill:hsl(180, 1.5873015873%, 48.3529411765%);}#graph-div .section-root text{fill:#2c2c2c;}#graph-div .icon-container{height:100%;display:flex;justify-content:center;align-items:center;}#graph-div .edge{fill:none;}#graph-div .eventWrapper{filter:brightness(120%);}#graph-div :root{--mermaid-font-family:"trebuchet ms",verdana,arial,sans-serif;}</style><g></g><g></g><defs><marker orient="auto" markerHeight="4" markerWidth="6" refY="2" refX="5" id="arrowhead"><path d="M 0,0 V 4 L6,2 Z"></path></marker></defs><g transform="translate(100, 50)"><g class="timeline-node section--1"><g><path d="M0 79.8 v-74.8 q0,-5 5,-5 h980 q5,0 5,5 v79.8 H0 Z" class="node-bkg node-undefined" id="node-undefined"></path><line y2="84.8" x2="990" y1="84.8" x1="0" class="node-line--1"></line></g><g transform="translate(495, 10)"><text text-anchor="middle" dominant-baseline="middle" alignment-baseline="middle" dy="1em"><tspan dy="1em" x="0">Admin   Authentication</tspan></text></g></g></g><g transform="translate(100, 184.8)" class="taskWrapper"><g class="timeline-node section--1"><g><path d="M0 62.19999961853027 v-57.19999961853027 q0,-5 5,-5 h180 q5,0 5,5 v62.19999961853027 H0 Z" class="node-bkg node-undefined" id="node-undefined"></path><line y2="67.19999961853027" x2="190" y1="67.19999961853027" x1="0" class="node-line--1"></line></g><g transform="translate(95, 10)"><text text-anchor="middle" dominant-baseline="middle" alignment-baseline="middle" dy="1em"><tspan dy="1em" x="0">Admin   login   attempt</tspan></text></g></g></g><g class="lineWrapper"><line stroke-dasharray="5,5" marker-end="url(#arrowhead)" stroke="black" stroke-width="2" y2="521.5999996185303" x2="195" y1="251.9999996185303" x1="195"></line></g><g transform="translate(100, 384.8)" class="eventWrapper"><g class="timeline-node section--1"><g><path d="M0 45 v-40 q0,-5 5,-5 h180 q5,0 5,5 v45 H0 Z" class="node-bkg node-undefined" id="node-undefined"></path><line y2="50" x2="190" y1="50" x1="0" class="node-line--1"></line></g><g transform="translate(95, 10)"><text text-anchor="middle" dominant-baseline="middle" alignment-baseline="middle" dy="1em"><tspan dy="1em" x="0">1,   2025-02-07,   2d</tspan></text></g></g></g><g transform="translate(300, 184.8)" class="taskWrapper"><g class="timeline-node section--1"><g><path d="M0 62.19999961853027 v-57.19999961853027 q0,-5 5,-5 h180 q5,0 5,5 v62.19999961853027 H0 Z" class="node-bkg node-undefined" id="node-undefined"></path><line y2="67.19999961853027" x2="190" y1="67.19999961853027" x1="0" class="node-line--1"></line></g><g transform="translate(95, 10)"><text text-anchor="middle" dominant-baseline="middle" alignment-baseline="middle" dy="1em"><tspan dy="1em" x="0">Admin</tspan><tspan dy="1.1em" x="0">authentication</tspan></text></g></g></g><g class="lineWrapper"><line stroke-dasharray="5,5" marker-end="url(#arrowhead)" stroke="black" stroke-width="2" y2="521.5999996185303" x2="395" y1="251.9999996185303" x1="395"></line></g><g transform="translate(300, 384.8)" class="eventWrapper"><g class="timeline-node section--1"><g><path d="M0 45 v-40 q0,-5 5,-5 h180 q5,0 5,5 v45 H0 Z" class="node-bkg node-undefined" id="node-undefined"></path><line y2="50" x2="190" y1="50" x1="0" class="node-line--1"></line></g><g transform="translate(95, 10)"><text text-anchor="middle" dominant-baseline="middle" alignment-baseline="middle" dy="1em"><tspan dy="1em" x="0">2,   after   login,   2d</tspan></text></g></g></g><g transform="translate(500, 184.8)" class="taskWrapper"><g class="timeline-node section--1"><g><path d="M0 62.19999961853027 v-57.19999961853027 q0,-5 5,-5 h180 q5,0 5,5 v62.19999961853027 H0 Z" class="node-bkg node-undefined" id="node-undefined"></path><line y2="67.19999961853027" x2="190" y1="67.19999961853027" x1="0" class="node-line--1"></line></g><g transform="translate(95, 10)"><text text-anchor="middle" dominant-baseline="middle" alignment-baseline="middle" dy="1em"><tspan dy="1em" x="0">Authentication</tspan><tspan dy="1.1em" x="0">success</tspan></text></g></g></g><g class="lineWrapper"><line stroke-dasharray="5,5" marker-end="url(#arrowhead)" stroke="black" stroke-width="2" y2="521.5999996185303" x2="595" y1="251.9999996185303" x1="595"></line></g><g transform="translate(500, 384.8)" class="eventWrapper"><g class="timeline-node section--1"><g><path d="M0 45 v-40 q0,-5 5,-5 h180 q5,0 5,5 v45 H0 Z" class="node-bkg node-undefined" id="node-undefined"></path><line y2="50" x2="190" y1="50" x1="0" class="node-line--1"></line></g><g transform="translate(95, 10)"><text text-anchor="middle" dominant-baseline="middle" alignment-baseline="middle" dy="1em"><tspan dy="1em" x="0">3,   after   success,   1d</tspan></text></g></g></g><g transform="translate(700, 184.8)" class="taskWrapper"><g class="timeline-node section--1"><g><path d="M0 62.19999961853027 v-57.19999961853027 q0,-5 5,-5 h180 q5,0 5,5 v62.19999961853027 H0 Z" class="node-bkg node-undefined" id="node-undefined"></path><line y2="67.19999961853027" x2="190" y1="67.19999961853027" x1="0" class="node-line--1"></line></g><g transform="translate(95, 10)"><text text-anchor="middle" dominant-baseline="middle" alignment-baseline="middle" dy="1em"><tspan dy="1em" x="0">Admin   logged   in</tspan></text></g></g></g><g class="lineWrapper"><line stroke-dasharray="5,5" marker-end="url(#arrowhead)" stroke="black" stroke-width="2" y2="521.5999996185303" x2="795" y1="251.9999996185303" x1="795"></line></g><g transform="translate(700, 384.8)" class="eventWrapper"><g class="timeline-node section--1"><g><path d="M0 45 v-40 q0,-5 5,-5 h180 q5,0 5,5 v45 H0 Z" class="node-bkg node-undefined" id="node-undefined"></path><line y2="50" x2="190" y1="50" x1="0" class="node-line--1"></line></g><g transform="translate(95, 10)"><text text-anchor="middle" dominant-baseline="middle" alignment-baseline="middle" dy="1em"><tspan dy="1em" x="0">4,   after   success,   3d</tspan></text></g></g></g><g transform="translate(900, 184.8)" class="taskWrapper"><g class="timeline-node section--1"><g><path d="M0 62.19999961853027 v-57.19999961853027 q0,-5 5,-5 h180 q5,0 5,5 v62.19999961853027 H0 Z" class="node-bkg node-undefined" id="node-undefined"></path><line y2="67.19999961853027" x2="190" y1="67.19999961853027" x1="0" class="node-line--1"></line></g><g transform="translate(95, 10)"><text text-anchor="middle" dominant-baseline="middle" alignment-baseline="middle" dy="1em"><tspan dy="1em" x="0">Admin   logs   out</tspan></text></g></g></g><g class="lineWrapper"><line stroke-dasharray="5,5" marker-end="url(#arrowhead)" stroke="black" stroke-width="2" y2="521.5999996185303" x2="995" y1="251.9999996185303" x1="995"></line></g><g transform="translate(900, 384.8)" class="eventWrapper"><g class="timeline-node section--1"><g><path d="M0 45 v-40 q0,-5 5,-5 h180 q5,0 5,5 v45 H0 Z" class="node-bkg node-undefined" id="node-undefined"></path><line y2="50" x2="190" y1="50" x1="0" class="node-line--1"></line></g><g transform="translate(95, 10)"><text text-anchor="middle" dominant-baseline="middle" alignment-baseline="middle" dy="1em"><tspan dy="1em" x="0">5,   after   action,   1d</tspan></text></g></g></g><g transform="translate(1100, 50)"><g class="timeline-node section-0"><g><path d="M0 79.8 v-74.8 q0,-5 5,-5 h1180 q5,0 5,5 v79.8 H0 Z" class="node-bkg node-undefined" id="node-undefined"></path><line y2="84.8" x2="1190" y1="84.8" x1="0" class="node-line-0"></line></g><g transform="translate(595, 10)"><text text-anchor="middle" dominant-baseline="middle" alignment-baseline="middle" dy="1em"><tspan dy="1em" x="0">Event   Management</tspan></text></g></g></g><g transform="translate(1100, 184.8)" class="taskWrapper"><g class="timeline-node section-0"><g><path d="M0 62.19999961853027 v-57.19999961853027 q0,-5 5,-5 h180 q5,0 5,5 v62.19999961853027 H0 Z" class="node-bkg node-undefined" id="node-undefined"></path><line y2="67.19999961853027" x2="190" y1="67.19999961853027" x1="0" class="node-line-0"></line></g><g transform="translate(95, 10)"><text text-anchor="middle" dominant-baseline="middle" alignment-baseline="middle" dy="1em"><tspan dy="1em" x="0">Admin   creates   event</tspan></text></g></g></g><g class="lineWrapper"><line stroke-dasharray="5,5" marker-end="url(#arrowhead)" stroke="black" stroke-width="2" y2="521.5999996185303" x2="1195" y1="251.9999996185303" x1="1195"></line></g><g transform="translate(1100, 384.8)" class="eventWrapper"><g class="timeline-node section-0"><g><path d="M0 45 v-40 q0,-5 5,-5 h180 q5,0 5,5 v45 H0 Z" class="node-bkg node-undefined" id="node-undefined"></path><line y2="50" x2="190" y1="50" x1="0" class="node-line-0"></line></g><g transform="translate(95, 10)"><text text-anchor="middle" dominant-baseline="middle" alignment-baseline="middle" dy="1em"><tspan dy="1em" x="0">6,   2025-02-07,   2d</tspan></text></g></g></g><g transform="translate(1300, 184.8)" class="taskWrapper"><g class="timeline-node section-0"><g><path d="M0 62.19999961853027 v-57.19999961853027 q0,-5 5,-5 h180 q5,0 5,5 v62.19999961853027 H0 Z" class="node-bkg node-undefined" id="node-undefined"></path><line y2="67.19999961853027" x2="190" y1="67.19999961853027" x1="0" class="node-line-0"></line></g><g transform="translate(95, 10)"><text text-anchor="middle" dominant-baseline="middle" alignment-baseline="middle" dy="1em"><tspan dy="1em" x="0">Event   created</tspan></text></g></g></g><g class="lineWrapper"><line stroke-dasharray="5,5" marker-end="url(#arrowhead)" stroke="black" stroke-width="2" y2="521.5999996185303" x2="1395" y1="251.9999996185303" x1="1395"></line></g><g transform="translate(1300, 384.8)" class="eventWrapper"><g class="timeline-node section-0"><g><path d="M0 45 v-40 q0,-5 5,-5 h180 q5,0 5,5 v45 H0 Z" class="node-bkg node-undefined" id="node-undefined"></path><line y2="50" x2="190" y1="50" x1="0" class="node-line-0"></line></g><g transform="translate(95, 10)"><text text-anchor="middle" dominant-baseline="middle" alignment-baseline="middle" dy="1em"><tspan dy="1em" x="0">7,   after   create,   1d</tspan></text></g></g></g><g transform="translate(1500, 184.8)" class="taskWrapper"><g class="timeline-node section-0"><g><path d="M0 62.19999961853027 v-57.19999961853027 q0,-5 5,-5 h180 q5,0 5,5 v62.19999961853027 H0 Z" class="node-bkg node-undefined" id="node-undefined"></path><line y2="67.19999961853027" x2="190" y1="67.19999961853027" x1="0" class="node-line-0"></line></g><g transform="translate(95, 10)"><text text-anchor="middle" dominant-baseline="middle" alignment-baseline="middle" dy="1em"><tspan dy="1em" x="0">Admin   updates</tspan><tspan dy="1.1em" x="0">event</tspan></text></g></g></g><g class="lineWrapper"><line stroke-dasharray="5,5" marker-end="url(#arrowhead)" stroke="black" stroke-width="2" y2="521.5999996185303" x2="1595" y1="251.9999996185303" x1="1595"></line></g><g transform="translate(1500, 384.8)" class="eventWrapper"><g class="timeline-node section-0"><g><path d="M0 59.8 v-54.8 q0,-5 5,-5 h180 q5,0 5,5 v59.8 H0 Z" class="node-bkg node-undefined" id="node-undefined"></path><line y2="64.8" x2="190" y1="64.8" x1="0" class="node-line-0"></line></g><g transform="translate(95, 10)"><text text-anchor="middle" dominant-baseline="middle" alignment-baseline="middle" dy="1em"><tspan dy="1em" x="0">8,   after   event</tspan><tspan dy="1.1em" x="0">creation,   3d</tspan></text></g></g></g><g transform="translate(1700, 184.8)" class="taskWrapper"><g class="timeline-node section-0"><g><path d="M0 62.19999961853027 v-57.19999961853027 q0,-5 5,-5 h180 q5,0 5,5 v62.19999961853027 H0 Z" class="node-bkg node-undefined" id="node-undefined"></path><line y2="67.19999961853027" x2="190" y1="67.19999961853027" x1="0" class="node-line-0"></line></g><g transform="translate(95, 10)"><text text-anchor="middle" dominant-baseline="middle" alignment-baseline="middle" dy="1em"><tspan dy="1em" x="0">Event   updated</tspan></text></g></g></g><g class="lineWrapper"><line stroke-dasharray="5,5" marker-end="url(#arrowhead)" stroke="black" stroke-width="2" y2="521.5999996185303" x2="1795" y1="251.9999996185303" x1="1795"></line></g><g transform="translate(1700, 384.8)" class="eventWrapper"><g class="timeline-node section-0"><g><path d="M0 45 v-40 q0,-5 5,-5 h180 q5,0 5,5 v45 H0 Z" class="node-bkg node-undefined" id="node-undefined"></path><line y2="50" x2="190" y1="50" x1="0" class="node-line-0"></line></g><g transform="translate(95, 10)"><text text-anchor="middle" dominant-baseline="middle" alignment-baseline="middle" dy="1em"><tspan dy="1em" x="0">9,   after   update,   1d</tspan></text></g></g></g><g transform="translate(1900, 184.8)" class="taskWrapper"><g class="timeline-node section-0"><g><path d="M0 62.19999961853027 v-57.19999961853027 q0,-5 5,-5 h180 q5,0 5,5 v62.19999961853027 H0 Z" class="node-bkg node-undefined" id="node-undefined"></path><line y2="67.19999961853027" x2="190" y1="67.19999961853027" x1="0" class="node-line-0"></line></g><g transform="translate(95, 10)"><text text-anchor="middle" dominant-baseline="middle" alignment-baseline="middle" dy="1em"><tspan dy="1em" x="0">Admin   deletes   event</tspan></text></g></g></g><g class="lineWrapper"><line stroke-dasharray="5,5" marker-end="url(#arrowhead)" stroke="black" stroke-width="2" y2="521.5999996185303" x2="1995" y1="251.9999996185303" x1="1995"></line></g><g transform="translate(1900, 384.8)" class="eventWrapper"><g class="timeline-node section-0"><g><path d="M0 59.8 v-54.8 q0,-5 5,-5 h180 q5,0 5,5 v59.8 H0 Z" class="node-bkg node-undefined" id="node-undefined"></path><line y2="64.8" x2="190" y1="64.8" x1="0" class="node-line-0"></line></g><g transform="translate(95, 10)"><text text-anchor="middle" dominant-baseline="middle" alignment-baseline="middle" dy="1em"><tspan dy="1em" x="0">10,   after   event</tspan><tspan dy="1.1em" x="0">update,   1d</tspan></text></g></g></g><g transform="translate(2100, 184.8)" class="taskWrapper"><g class="timeline-node section-0"><g><path d="M0 62.19999961853027 v-57.19999961853027 q0,-5 5,-5 h180 q5,0 5,5 v62.19999961853027 H0 Z" class="node-bkg node-undefined" id="node-undefined"></path><line y2="67.19999961853027" x2="190" y1="67.19999961853027" x1="0" class="node-line-0"></line></g><g transform="translate(95, 10)"><text text-anchor="middle" dominant-baseline="middle" alignment-baseline="middle" dy="1em"><tspan dy="1em" x="0">Event   deleted</tspan></text></g></g></g><g class="lineWrapper"><line stroke-dasharray="5,5" marker-end="url(#arrowhead)" stroke="black" stroke-width="2" y2="521.5999996185303" x2="2195" y1="251.9999996185303" x1="2195"></line></g><g transform="translate(2100, 384.8)" class="eventWrapper"><g class="timeline-node section-0"><g><path d="M0 45 v-40 q0,-5 5,-5 h180 q5,0 5,5 v45 H0 Z" class="node-bkg node-undefined" id="node-undefined"></path><line y2="50" x2="190" y1="50" x1="0" class="node-line-0"></line></g><g transform="translate(95, 10)"><text text-anchor="middle" dominant-baseline="middle" alignment-baseline="middle" dy="1em"><tspan dy="1em" x="0">11,   after   delete,   1d</tspan></text></g></g></g><g transform="translate(2300, 50)"><g class="timeline-node section-1"><g><path d="M0 79.8 v-74.8 q0,-5 5,-5 h2180 q5,0 5,5 v79.8 H0 Z" class="node-bkg node-undefined" id="node-undefined"></path><line y2="84.8" x2="2190" y1="84.8" x1="0" class="node-line-1"></line></g><g transform="translate(1095, 10)"><text text-anchor="middle" dominant-baseline="middle" alignment-baseline="middle" dy="1em"><tspan dy="1em" x="0">Booking   Management</tspan></text></g></g></g><g transform="translate(2300, 184.8)" class="taskWrapper"><g class="timeline-node section-1"><g><path d="M0 62.19999961853027 v-57.19999961853027 q0,-5 5,-5 h180 q5,0 5,5 v62.19999961853027 H0 Z" class="node-bkg node-undefined" id="node-undefined"></path><line y2="67.19999961853027" x2="190" y1="67.19999961853027" x1="0" class="node-line-1"></line></g><g transform="translate(95, 10)"><text text-anchor="middle" dominant-baseline="middle" alignment-baseline="middle" dy="1em"><tspan dy="1em" x="0">Admin   views</tspan><tspan dy="1.1em" x="0">bookings</tspan></text></g></g></g><g class="lineWrapper"><line stroke-dasharray="5,5" marker-end="url(#arrowhead)" stroke="black" stroke-width="2" y2="521.5999996185303" x2="2395" y1="251.9999996185303" x1="2395"></line></g><g transform="translate(2300, 384.8)" class="eventWrapper"><g class="timeline-node section-1"><g><path d="M0 45 v-40 q0,-5 5,-5 h180 q5,0 5,5 v45 H0 Z" class="node-bkg node-undefined" id="node-undefined"></path><line y2="50" x2="190" y1="50" x1="0" class="node-line-1"></line></g><g transform="translate(95, 10)"><text text-anchor="middle" dominant-baseline="middle" alignment-baseline="middle" dy="1em"><tspan dy="1em" x="0">12,   2025-02-08,   2d</tspan></text></g></g></g><g transform="translate(2500, 184.8)" class="taskWrapper"><g class="timeline-node section-1"><g><path d="M0 62.19999961853027 v-57.19999961853027 q0,-5 5,-5 h180 q5,0 5,5 v62.19999961853027 H0 Z" class="node-bkg node-undefined" id="node-undefined"></path><line y2="67.19999961853027" x2="190" y1="67.19999961853027" x1="0" class="node-line-1"></line></g><g transform="translate(95, 10)"><text text-anchor="middle" dominant-baseline="middle" alignment-baseline="middle" dy="1em"><tspan dy="1em" x="0">Customer   checks</tspan><tspan dy="1.1em" x="0">ticket   availability</tspan></text></g></g></g><g class="lineWrapper"><line stroke-dasharray="5,5" marker-end="url(#arrowhead)" stroke="black" stroke-width="2" y2="521.5999996185303" x2="2595" y1="251.9999996185303" x1="2595"></line></g><g transform="translate(2500, 384.8)" class="eventWrapper"><g class="timeline-node section-1"><g><path d="M0 45 v-40 q0,-5 5,-5 h180 q5,0 5,5 v45 H0 Z" class="node-bkg node-undefined" id="node-undefined"></path><line y2="50" x2="190" y1="50" x1="0" class="node-line-1"></line></g><g transform="translate(95, 10)"><text text-anchor="middle" dominant-baseline="middle" alignment-baseline="middle" dy="1em"><tspan dy="1em" x="0">13,   2025-02-08,   2d</tspan></text></g></g></g><g transform="translate(2700, 184.8)" class="taskWrapper"><g class="timeline-node section-1"><g><path d="M0 62.19999961853027 v-57.19999961853027 q0,-5 5,-5 h180 q5,0 5,5 v62.19999961853027 H0 Z" class="node-bkg node-undefined" id="node-undefined"></path><line y2="67.19999961853027" x2="190" y1="67.19999961853027" x1="0" class="node-line-1"></line></g><g transform="translate(95, 10)"><text text-anchor="middle" dominant-baseline="middle" alignment-baseline="middle" dy="1em"><tspan dy="1em" x="0">Tickets   available</tspan></text></g></g></g><g class="lineWrapper"><line stroke-dasharray="5,5" marker-end="url(#arrowhead)" stroke="black" stroke-width="2" y2="521.5999996185303" x2="2795" y1="251.9999996185303" x1="2795"></line></g><g transform="translate(2700, 384.8)" class="eventWrapper"><g class="timeline-node section-1"><g><path d="M0 45 v-40 q0,-5 5,-5 h180 q5,0 5,5 v45 H0 Z" class="node-bkg node-undefined" id="node-undefined"></path><line y2="50" x2="190" y1="50" x1="0" class="node-line-1"></line></g><g transform="translate(95, 10)"><text text-anchor="middle" dominant-baseline="middle" alignment-baseline="middle" dy="1em"><tspan dy="1em" x="0">14,   after   check,   2d</tspan></text></g></g></g><g transform="translate(2900, 184.8)" class="taskWrapper"><g class="timeline-node section-1"><g><path d="M0 62.19999961853027 v-57.19999961853027 q0,-5 5,-5 h180 q5,0 5,5 v62.19999961853027 H0 Z" class="node-bkg node-undefined" id="node-undefined"></path><line y2="67.19999961853027" x2="190" y1="67.19999961853027" x1="0" class="node-line-1"></line></g><g transform="translate(95, 10)"><text text-anchor="middle" dominant-baseline="middle" alignment-baseline="middle" dy="1em"><tspan dy="1em" x="0">Admin   creates</tspan><tspan dy="1.1em" x="0">booking</tspan></text></g></g></g><g class="lineWrapper"><line stroke-dasharray="5,5" marker-end="url(#arrowhead)" stroke="black" stroke-width="2" y2="521.5999996185303" x2="2995" y1="251.9999996185303" x1="2995"></line></g><g transform="translate(2900, 384.8)" class="eventWrapper"><g class="timeline-node section-1"><g><path d="M0 59.8 v-54.8 q0,-5 5,-5 h180 q5,0 5,5 v59.8 H0 Z" class="node-bkg node-undefined" id="node-undefined"></path><line y2="64.8" x2="190" y1="64.8" x1="0" class="node-line-1"></line></g><g transform="translate(95, 10)"><text text-anchor="middle" dominant-baseline="middle" alignment-baseline="middle" dy="1em"><tspan dy="1em" x="0">15,   after   ticket</tspan><tspan dy="1.1em" x="0">check,   3d</tspan></text></g></g></g><g transform="translate(3100, 184.8)" class="taskWrapper"><g class="timeline-node section-1"><g><path d="M0 62.19999961853027 v-57.19999961853027 q0,-5 5,-5 h180 q5,0 5,5 v62.19999961853027 H0 Z" class="node-bkg node-undefined" id="node-undefined"></path><line y2="67.19999961853027" x2="190" y1="67.19999961853027" x1="0" class="node-line-1"></line></g><g transform="translate(95, 10)"><text text-anchor="middle" dominant-baseline="middle" alignment-baseline="middle" dy="1em"><tspan dy="1em" x="0">Booking   created</tspan></text></g></g></g><g class="lineWrapper"><line stroke-dasharray="5,5" marker-end="url(#arrowhead)" stroke="black" stroke-width="2" y2="521.5999996185303" x2="3195" y1="251.9999996185303" x1="3195"></line></g><g transform="translate(3100, 384.8)" class="eventWrapper"><g class="timeline-node section-1"><g><path d="M0 59.8 v-54.8 q0,-5 5,-5 h180 q5,0 5,5 v59.8 H0 Z" class="node-bkg node-undefined" id="node-undefined"></path><line y2="64.8" x2="190" y1="64.8" x1="0" class="node-line-1"></line></g><g transform="translate(95, 10)"><text text-anchor="middle" dominant-baseline="middle" alignment-baseline="middle" dy="1em"><tspan dy="1em" x="0">16,   after   booking,</tspan><tspan dy="1.1em" x="0">2d</tspan></text></g></g></g><g transform="translate(3300, 184.8)" class="taskWrapper"><g class="timeline-node section-1"><g><path d="M0 62.19999961853027 v-57.19999961853027 q0,-5 5,-5 h180 q5,0 5,5 v62.19999961853027 H0 Z" class="node-bkg node-undefined" id="node-undefined"></path><line y2="67.19999961853027" x2="190" y1="67.19999961853027" x1="0" class="node-line-1"></line></g><g transform="translate(95, 10)"><text text-anchor="middle" dominant-baseline="middle" alignment-baseline="middle" dy="1em"><tspan dy="1em" x="0">Admin   sends</tspan><tspan dy="1.1em" x="0">notification</tspan></text></g></g></g><g class="lineWrapper"><line stroke-dasharray="5,5" marker-end="url(#arrowhead)" stroke="black" stroke-width="2" y2="521.5999996185303" x2="3395" y1="251.9999996185303" x1="3395"></line></g><g transform="translate(3300, 384.8)" class="eventWrapper"><g class="timeline-node section-1"><g><path d="M0 59.8 v-54.8 q0,-5 5,-5 h180 q5,0 5,5 v59.8 H0 Z" class="node-bkg node-undefined" id="node-undefined"></path><line y2="64.8" x2="190" y1="64.8" x1="0" class="node-line-1"></line></g><g transform="translate(95, 10)"><text text-anchor="middle" dominant-baseline="middle" alignment-baseline="middle" dy="1em"><tspan dy="1em" x="0">17,   after   booking,</tspan><tspan dy="1.1em" x="0">1d</tspan></text></g></g></g><g transform="translate(3500, 184.8)" class="taskWrapper"><g class="timeline-node section-1"><g><path d="M0 62.19999961853027 v-57.19999961853027 q0,-5 5,-5 h180 q5,0 5,5 v62.19999961853027 H0 Z" class="node-bkg node-undefined" id="node-undefined"></path><line y2="67.19999961853027" x2="190" y1="67.19999961853027" x1="0" class="node-line-1"></line></g><g transform="translate(95, 10)"><text text-anchor="middle" dominant-baseline="middle" alignment-baseline="middle" dy="1em"><tspan dy="1em" x="0">Customer   receives</tspan><tspan dy="1.1em" x="0">notification</tspan></text></g></g></g><g class="lineWrapper"><line stroke-dasharray="5,5" marker-end="url(#arrowhead)" stroke="black" stroke-width="2" y2="521.5999996185303" x2="3595" y1="251.9999996185303" x1="3595"></line></g><g transform="translate(3500, 384.8)" class="eventWrapper"><g class="timeline-node section-1"><g><path d="M0 59.8 v-54.8 q0,-5 5,-5 h180 q5,0 5,5 v59.8 H0 Z" class="node-bkg node-undefined" id="node-undefined"></path><line y2="64.8" x2="190" y1="64.8" x1="0" class="node-line-1"></line></g><g transform="translate(95, 10)"><text text-anchor="middle" dominant-baseline="middle" alignment-baseline="middle" dy="1em"><tspan dy="1em" x="0">18,   after</tspan><tspan dy="1.1em" x="0">notification,   1d</tspan></text></g></g></g><g transform="translate(3700, 184.8)" class="taskWrapper"><g class="timeline-node section-1"><g><path d="M0 62.19999961853027 v-57.19999961853027 q0,-5 5,-5 h180 q5,0 5,5 v62.19999961853027 H0 Z" class="node-bkg node-undefined" id="node-undefined"></path><line y2="67.19999961853027" x2="190" y1="67.19999961853027" x1="0" class="node-line-1"></line></g><g transform="translate(95, 10)"><text text-anchor="middle" dominant-baseline="middle" alignment-baseline="middle" dy="1em"><tspan dy="1em" x="0">Admin   cancels</tspan><tspan dy="1.1em" x="0">booking</tspan></text></g></g></g><g class="lineWrapper"><line stroke-dasharray="5,5" marker-end="url(#arrowhead)" stroke="black" stroke-width="2" y2="521.5999996185303" x2="3795" y1="251.9999996185303" x1="3795"></line></g><g transform="translate(3700, 384.8)" class="eventWrapper"><g class="timeline-node section-1"><g><path d="M0 45 v-40 q0,-5 5,-5 h180 q5,0 5,5 v45 H0 Z" class="node-bkg node-undefined" id="node-undefined"></path><line y2="50" x2="190" y1="50" x1="0" class="node-line-1"></line></g><g transform="translate(95, 10)"><text text-anchor="middle" dominant-baseline="middle" alignment-baseline="middle" dy="1em"><tspan dy="1em" x="0">19,   2025-02-09,   2d</tspan></text></g></g></g><g transform="translate(3900, 184.8)" class="taskWrapper"><g class="timeline-node section-1"><g><path d="M0 62.19999961853027 v-57.19999961853027 q0,-5 5,-5 h180 q5,0 5,5 v62.19999961853027 H0 Z" class="node-bkg node-undefined" id="node-undefined"></path><line y2="67.19999961853027" x2="190" y1="67.19999961853027" x1="0" class="node-line-1"></line></g><g transform="translate(95, 10)"><text text-anchor="middle" dominant-baseline="middle" alignment-baseline="middle" dy="1em"><tspan dy="1em" x="0">Booking   canceled</tspan></text></g></g></g><g class="lineWrapper"><line stroke-dasharray="5,5" marker-end="url(#arrowhead)" stroke="black" stroke-width="2" y2="521.5999996185303" x2="3995" y1="251.9999996185303" x1="3995"></line></g><g transform="translate(3900, 384.8)" class="eventWrapper"><g class="timeline-node section-1"><g><path d="M0 45 v-40 q0,-5 5,-5 h180 q5,0 5,5 v45 H0 Z" class="node-bkg node-undefined" id="node-undefined"></path><line y2="50" x2="190" y1="50" x1="0" class="node-line-1"></line></g><g transform="translate(95, 10)"><text text-anchor="middle" dominant-baseline="middle" alignment-baseline="middle" dy="1em"><tspan dy="1em" x="0">20,   after   cancel,   1d</tspan></text></g></g></g><g transform="translate(4100, 184.8)" class="taskWrapper"><g class="timeline-node section-1"><g><path d="M0 62.19999961853027 v-57.19999961853027 q0,-5 5,-5 h180 q5,0 5,5 v62.19999961853027 H0 Z" class="node-bkg node-undefined" id="node-undefined"></path><line y2="67.19999961853027" x2="190" y1="67.19999961853027" x1="0" class="node-line-1"></line></g><g transform="translate(95, 10)"><text text-anchor="middle" dominant-baseline="middle" alignment-baseline="middle" dy="1em"><tspan dy="1em" x="0">Admin   modifies</tspan><tspan dy="1.1em" x="0">booking</tspan></text></g></g></g><g class="lineWrapper"><line stroke-dasharray="5,5" marker-end="url(#arrowhead)" stroke="black" stroke-width="2" y2="521.5999996185303" x2="4195" y1="251.9999996185303" x1="4195"></line></g><g transform="translate(4100, 384.8)" class="eventWrapper"><g class="timeline-node section-1"><g><path d="M0 45 v-40 q0,-5 5,-5 h180 q5,0 5,5 v45 H0 Z" class="node-bkg node-undefined" id="node-undefined"></path><line y2="50" x2="190" y1="50" x1="0" class="node-line-1"></line></g><g transform="translate(95, 10)"><text text-anchor="middle" dominant-baseline="middle" alignment-baseline="middle" dy="1em"><tspan dy="1em" x="0">21,   2025-02-09,   1d</tspan></text></g></g></g><g transform="translate(4300, 184.8)" class="taskWrapper"><g class="timeline-node section-1"><g><path d="M0 62.19999961853027 v-57.19999961853027 q0,-5 5,-5 h180 q5,0 5,5 v62.19999961853027 H0 Z" class="node-bkg node-undefined" id="node-undefined"></path><line y2="67.19999961853027" x2="190" y1="67.19999961853027" x1="0" class="node-line-1"></line></g><g transform="translate(95, 10)"><text text-anchor="middle" dominant-baseline="middle" alignment-baseline="middle" dy="1em"><tspan dy="1em" x="0">Booking   modified</tspan></text></g></g></g><g class="lineWrapper"><line stroke-dasharray="5,5" marker-end="url(#arrowhead)" stroke="black" stroke-width="2" y2="521.5999996185303" x2="4395" y1="251.9999996185303" x1="4395"></line></g><g transform="translate(4300, 384.8)" class="eventWrapper"><g class="timeline-node section-1"><g><path d="M0 45 v-40 q0,-5 5,-5 h180 q5,0 5,5 v45 H0 Z" class="node-bkg node-undefined" id="node-undefined"></path><line y2="50" x2="190" y1="50" x1="0" class="node-line-1"></line></g><g transform="translate(95, 10)"><text text-anchor="middle" dominant-baseline="middle" alignment-baseline="middle" dy="1em"><tspan dy="1em" x="0">22,   after   modify,   1d</tspan></text></g></g></g><g transform="translate(4500, 50)"><g class="timeline-node section-2"><g><path d="M0 79.8 v-74.8 q0,-5 5,-5 h780 q5,0 5,5 v79.8 H0 Z" class="node-bkg node-undefined" id="node-undefined"></path><line y2="84.8" x2="790" y1="84.8" x1="0" class="node-line-2"></line></g><g transform="translate(395, 10)"><text text-anchor="middle" dominant-baseline="middle" alignment-baseline="middle" dy="1em"><tspan dy="1em" x="0">Sales   Reporting</tspan></text></g></g></g><g transform="translate(4500, 184.8)" class="taskWrapper"><g class="timeline-node section-2"><g><path d="M0 62.19999961853027 v-57.19999961853027 q0,-5 5,-5 h180 q5,0 5,5 v62.19999961853027 H0 Z" class="node-bkg node-undefined" id="node-undefined"></path><line y2="67.19999961853027" x2="190" y1="67.19999961853027" x1="0" class="node-line-2"></line></g><g transform="translate(95, 10)"><text text-anchor="middle" dominant-baseline="middle" alignment-baseline="middle" dy="1em"><tspan dy="1em" x="0">Admin   generates</tspan><tspan dy="1.1em" x="0">daily   report</tspan></text></g></g></g><g class="lineWrapper"><line stroke-dasharray="5,5" marker-end="url(#arrowhead)" stroke="black" stroke-width="2" y2="521.5999996185303" x2="4595" y1="251.9999996185303" x1="4595"></line></g><g transform="translate(4500, 384.8)" class="eventWrapper"><g class="timeline-node section-2"><g><path d="M0 45 v-40 q0,-5 5,-5 h180 q5,0 5,5 v45 H0 Z" class="node-bkg node-undefined" id="node-undefined"></path><line y2="50" x2="190" y1="50" x1="0" class="node-line-2"></line></g><g transform="translate(95, 10)"><text text-anchor="middle" dominant-baseline="middle" alignment-baseline="middle" dy="1em"><tspan dy="1em" x="0">23,   2025-02-09,   1d</tspan></text></g></g></g><g transform="translate(4700, 184.8)" class="taskWrapper"><g class="timeline-node section-2"><g><path d="M0 62.19999961853027 v-57.19999961853027 q0,-5 5,-5 h180 q5,0 5,5 v62.19999961853027 H0 Z" class="node-bkg node-undefined" id="node-undefined"></path><line y2="67.19999961853027" x2="190" y1="67.19999961853027" x1="0" class="node-line-2"></line></g><g transform="translate(95, 10)"><text text-anchor="middle" dominant-baseline="middle" alignment-baseline="middle" dy="1em"><tspan dy="1em" x="0">Sales   report</tspan><tspan dy="1.1em" x="0">generated</tspan></text></g></g></g><g class="lineWrapper"><line stroke-dasharray="5,5" marker-end="url(#arrowhead)" stroke="black" stroke-width="2" y2="521.5999996185303" x2="4795" y1="251.9999996185303" x1="4795"></line></g><g transform="translate(4700, 384.8)" class="eventWrapper"><g class="timeline-node section-2"><g><path d="M0 45 v-40 q0,-5 5,-5 h180 q5,0 5,5 v45 H0 Z" class="node-bkg node-undefined" id="node-undefined"></path><line y2="50" x2="190" y1="50" x1="0" class="node-line-2"></line></g><g transform="translate(95, 10)"><text text-anchor="middle" dominant-baseline="middle" alignment-baseline="middle" dy="1em"><tspan dy="1em" x="0">24,   after   report,   2d</tspan></text></g></g></g><g transform="translate(4900, 184.8)" class="taskWrapper"><g class="timeline-node section-2"><g><path d="M0 62.19999961853027 v-57.19999961853027 q0,-5 5,-5 h180 q5,0 5,5 v62.19999961853027 H0 Z" class="node-bkg node-undefined" id="node-undefined"></path><line y2="67.19999961853027" x2="190" y1="67.19999961853027" x1="0" class="node-line-2"></line></g><g transform="translate(95, 10)"><text text-anchor="middle" dominant-baseline="middle" alignment-baseline="middle" dy="1em"><tspan dy="1em" x="0">Admin   generates</tspan><tspan dy="1.1em" x="0">monthly   report</tspan></text></g></g></g><g class="lineWrapper"><line stroke-dasharray="5,5" marker-end="url(#arrowhead)" stroke="black" stroke-width="2" y2="521.5999996185303" x2="4995" y1="251.9999996185303" x1="4995"></line></g><g transform="translate(4900, 384.8)" class="eventWrapper"><g class="timeline-node section-2"><g><path d="M0 45 v-40 q0,-5 5,-5 h180 q5,0 5,5 v45 H0 Z" class="node-bkg node-undefined" id="node-undefined"></path><line y2="50" x2="190" y1="50" x1="0" class="node-line-2"></line></g><g transform="translate(95, 10)"><text text-anchor="middle" dominant-baseline="middle" alignment-baseline="middle" dy="1em"><tspan dy="1em" x="0">25,   2025-02-10,   1d</tspan></text></g></g></g><g transform="translate(5100, 184.8)" class="taskWrapper"><g class="timeline-node section-2"><g><path d="M0 62.19999961853027 v-57.19999961853027 q0,-5 5,-5 h180 q5,0 5,5 v62.19999961853027 H0 Z" class="node-bkg node-undefined" id="node-undefined"></path><line y2="67.19999961853027" x2="190" y1="67.19999961853027" x1="0" class="node-line-2"></line></g><g transform="translate(95, 10)"><text text-anchor="middle" dominant-baseline="middle" alignment-baseline="middle" dy="1em"><tspan dy="1em" x="0">Monthly   report</tspan><tspan dy="1.1em" x="0">generated</tspan></text></g></g></g><g class="lineWrapper"><line stroke-dasharray="5,5" marker-end="url(#arrowhead)" stroke="black" stroke-width="2" y2="521.5999996185303" x2="5195" y1="251.9999996185303" x1="5195"></line></g><g transform="translate(5100, 384.8)" class="eventWrapper"><g class="timeline-node section-2"><g><path d="M0 45 v-40 q0,-5 5,-5 h180 q5,0 5,5 v45 H0 Z" class="node-bkg node-undefined" id="node-undefined"></path><line y2="50" x2="190" y1="50" x1="0" class="node-line-2"></line></g><g transform="translate(95, 10)"><text text-anchor="middle" dominant-baseline="middle" alignment-baseline="middle" dy="1em"><tspan dy="1em" x="0">26,   after   report,   3d</tspan></text></g></g></g><text y="20" font-weight="bold" font-size="4ex" x="2545">EventEase Ticket Management System Timeline</text><g class="lineWrapper"><line marker-end="url(#arrowhead)" stroke="black" stroke-width="4" y2="301.9999996185303" x2="5340" y1="301.9999996185303" x1="50"></line></g></svg>