<svg xmlns="http://www.w3.org/2000/svg" xmlns:xlink="http://www.w3.org/1999/xlink" contentStyleType="text/css" data-diagram-type="CLASS" height="540px" preserveAspectRatio="none" style="width:1927px;height:540px;background:#FFFFFF;" version="1.1" viewBox="0 0 1927 540" width="1927px" zoomAndPan="magnify"><defs/><g><!--class AdminLoginPage--><g id="elem_AdminLoginPage"><rect codeLine="5" fill="#F1F1F1" height="129.4844" id="AdminLoginPage" rx="2.5" ry="2.5" style="stroke:#181818;stroke-width:0.5;" width="169.5752" x="921.91" y="7"/><ellipse cx="945.9887" cy="23" fill="#ADD1B2" rx="11" ry="11" style="stroke:#181818;stroke-width:1;"/><path d="M948.9574,28.6406 Q948.3793,28.9375 947.7387,29.0781 Q947.098,29.2344 946.3949,29.2344 Q943.8949,29.2344 942.5668,27.5938 Q941.2543,25.9375 941.2543,22.8125 Q941.2543,19.6875 942.5668,18.0313 Q943.8949,16.375 946.3949,16.375 Q947.098,16.375 947.7387,16.5313 Q948.3949,16.6875 948.9574,16.9844 L948.9574,19.7031 Q948.3324,19.125 947.7387,18.8594 Q947.1449,18.5781 946.5199,18.5781 Q945.1762,18.5781 944.4887,19.6563 Q943.8012,20.7188 943.8012,22.8125 Q943.8012,24.9063 944.4887,25.9844 Q945.1762,27.0469 946.5199,27.0469 Q947.1449,27.0469 947.7387,26.7813 Q948.3324,26.5 948.9574,25.9219 L948.9574,28.6406 Z " fill="#000000"/><text fill="#000000" font-family="sans-serif" font-size="14" lengthAdjust="spacing" textLength="117.4004" x="962.0061" y="27.8467">AdminLoginPage</text><line style="stroke:#181818;stroke-width:0.5;" x1="922.91" x2="1090.4852" y1="39" y2="39"/><ellipse cx="932.91" cy="52.6484" fill="#FFFFFF" fill-opacity="0.00000" rx="3" ry="3" style="stroke:#038048;stroke-width:1;"/><text fill="#000000" font-family="sans-serif" font-size="14" lengthAdjust="spacing" textLength="109.3955" x="941.91" y="55.9951">Username Field</text><ellipse cx="932.91" cy="68.9453" fill="#FFFFFF" fill-opacity="0.00000" rx="3" ry="3" style="stroke:#038048;stroke-width:1;"/><text fill="#000000" font-family="sans-serif" font-size="14" lengthAdjust="spacing" textLength="104.0498" x="941.91" y="72.292">Password Field</text><ellipse cx="932.91" cy="85.2422" fill="#FFFFFF" fill-opacity="0.00000" rx="3" ry="3" style="stroke:#038048;stroke-width:1;"/><text fill="#000000" font-family="sans-serif" font-size="14" lengthAdjust="spacing" textLength="89.3594" x="941.91" y="88.5889">Login Button</text><ellipse cx="932.91" cy="101.5391" fill="#FFFFFF" fill-opacity="0.00000" rx="3" ry="3" style="stroke:#038048;stroke-width:1;"/><text fill="#000000" font-family="sans-serif" font-size="14" lengthAdjust="spacing" textLength="143.5752" x="941.91" y="104.8857">Password Reset Link</text><ellipse cx="932.91" cy="117.8359" fill="#FFFFFF" fill-opacity="0.00000" rx="3" ry="3" style="stroke:#038048;stroke-width:1;"/><text fill="#000000" font-family="sans-serif" font-size="14" lengthAdjust="spacing" textLength="107.7822" x="941.91" y="121.1826">Error Messages</text><line style="stroke:#181818;stroke-width:0.5;" x1="922.91" x2="1090.4852" y1="128.4844" y2="128.4844"/></g><!--class DashboardPage--><g id="elem_DashboardPage"><rect codeLine="14" fill="#F1F1F1" height="96.8906" id="DashboardPage" rx="2.5" ry="2.5" style="stroke:#181818;stroke-width:0.5;" width="356.1963" x="828.6" y="213.49"/><ellipse cx="947.0873" cy="229.49" fill="#ADD1B2" rx="11" ry="11" style="stroke:#181818;stroke-width:1;"/><path d="M950.0561,235.1306 Q949.4779,235.4275 948.8373,235.5681 Q948.1967,235.7244 947.4936,235.7244 Q944.9936,235.7244 943.6654,234.0837 Q942.3529,232.4275 942.3529,229.3025 Q942.3529,226.1775 943.6654,224.5212 Q944.9936,222.865 947.4936,222.865 Q948.1967,222.865 948.8373,223.0212 Q949.4936,223.1775 950.0561,223.4744 L950.0561,226.1931 Q949.4311,225.615 948.8373,225.3494 Q948.2436,225.0681 947.6186,225.0681 Q946.2748,225.0681 945.5873,226.1462 Q944.8998,227.2087 944.8998,229.3025 Q944.8998,231.3962 945.5873,232.4744 Q946.2748,233.5369 947.6186,233.5369 Q948.2436,233.5369 948.8373,233.2712 Q949.4311,232.99 950.0561,232.4119 L950.0561,235.1306 Z " fill="#000000"/><text fill="#000000" font-family="sans-serif" font-size="14" lengthAdjust="spacing" textLength="110.7217" x="967.5873" y="234.3367">DashboardPage</text><line style="stroke:#181818;stroke-width:0.5;" x1="829.6" x2="1183.7963" y1="245.49" y2="245.49"/><ellipse cx="839.6" cy="259.1384" fill="#FFFFFF" fill-opacity="0.00000" rx="3" ry="3" style="stroke:#038048;stroke-width:1;"/><text fill="#000000" font-family="sans-serif" font-size="14" lengthAdjust="spacing" textLength="118.3984" x="848.6" y="262.4851">Navigation Menu</text><ellipse cx="839.6" cy="275.4353" fill="#FFFFFF" fill-opacity="0.00000" rx="3" ry="3" style="stroke:#038048;stroke-width:1;"/><text fill="#000000" font-family="sans-serif" font-size="14" lengthAdjust="spacing" textLength="99.5244" x="848.6" y="278.782">Logout Button</text><line style="stroke:#181818;stroke-width:0.5;" x1="829.6" x2="1183.7963" y1="286.0837" y2="286.0837"/><ellipse cx="839.6" cy="299.7322" fill="#84BE84" rx="3" ry="3" style="stroke:#038048;stroke-width:1;"/><text fill="#000000" font-family="sans-serif" font-size="14" lengthAdjust="spacing" textLength="330.1963" x="848.6" y="303.0789">Notification List (Upcoming Event, Preparation)</text></g><!--class EventManagementPage--><g id="elem_EventManagementPage"><rect codeLine="21" fill="#F1F1F1" height="145.7813" id="EventManagementPage" rx="2.5" ry="2.5" style="stroke:#181818;stroke-width:0.5;" width="295.3906" x="7" y="387.38"/><ellipse cx="67.0195" cy="403.38" fill="#ADD1B2" rx="11" ry="11" style="stroke:#181818;stroke-width:1;"/><path d="M69.9883,409.0206 Q69.4102,409.3175 68.7695,409.4581 Q68.1289,409.6144 67.4258,409.6144 Q64.9258,409.6144 63.5977,407.9738 Q62.2852,406.3175 62.2852,403.1925 Q62.2852,400.0675 63.5977,398.4113 Q64.9258,396.755 67.4258,396.755 Q68.1289,396.755 68.7695,396.9113 Q69.4258,397.0675 69.9883,397.3644 L69.9883,400.0831 Q69.3633,399.505 68.7695,399.2394 Q68.1758,398.9581 67.5508,398.9581 Q66.207,398.9581 65.5195,400.0363 Q64.832,401.0988 64.832,403.1925 Q64.832,405.2863 65.5195,406.3644 Q66.207,407.4269 67.5508,407.4269 Q68.1758,407.4269 68.7695,407.1613 Q69.3633,406.88 69.9883,406.3019 L69.9883,409.0206 Z " fill="#000000"/><text fill="#000000" font-family="sans-serif" font-size="14" lengthAdjust="spacing" textLength="166.8516" x="87.5195" y="408.2267">EventManagementPage</text><line style="stroke:#181818;stroke-width:0.5;" x1="8" x2="301.3906" y1="419.38" y2="419.38"/><ellipse cx="18" cy="433.0284" fill="#FFFFFF" fill-opacity="0.00000" rx="3" ry="3" style="stroke:#038048;stroke-width:1;"/><text fill="#000000" font-family="sans-serif" font-size="14" lengthAdjust="spacing" textLength="142.7275" x="27" y="436.3751">Create Event Button</text><ellipse cx="18" cy="449.3253" fill="#FFFFFF" fill-opacity="0.00000" rx="3" ry="3" style="stroke:#038048;stroke-width:1;"/><text fill="#000000" font-family="sans-serif" font-size="14" lengthAdjust="spacing" textLength="123.0127" x="27" y="452.672">Edit Event Button</text><ellipse cx="18" cy="465.6222" fill="#FFFFFF" fill-opacity="0.00000" rx="3" ry="3" style="stroke:#038048;stroke-width:1;"/><text fill="#000000" font-family="sans-serif" font-size="14" lengthAdjust="spacing" textLength="141.9004" x="27" y="468.9689">Delete Event Button</text><ellipse cx="18" cy="481.9191" fill="#FFFFFF" fill-opacity="0.00000" rx="3" ry="3" style="stroke:#038048;stroke-width:1;"/><text fill="#000000" font-family="sans-serif" font-size="14" lengthAdjust="spacing" textLength="133.5537" x="27" y="485.2657">Event Details Form</text><line style="stroke:#181818;stroke-width:0.5;" x1="8" x2="301.3906" y1="492.5675" y2="492.5675"/><ellipse cx="18" cy="506.2159" fill="#84BE84" rx="3" ry="3" style="stroke:#038048;stroke-width:1;"/><text fill="#000000" font-family="sans-serif" font-size="14" lengthAdjust="spacing" textLength="160.9043" x="27" y="509.5626">Event List (Table View)</text><ellipse cx="18" cy="522.5128" fill="#84BE84" rx="3" ry="3" style="stroke:#038048;stroke-width:1;"/><text fill="#000000" font-family="sans-serif" font-size="14" lengthAdjust="spacing" textLength="269.3906" x="27" y="525.8595">Search &amp; Filter (Date, Team, Location)</text></g><!--class TicketBookingPage--><g id="elem_TicketBookingPage"><rect codeLine="31" fill="#F1F1F1" height="113.1875" id="TicketBookingPage" rx="2.5" ry="2.5" style="stroke:#181818;stroke-width:0.5;" width="349.3535" x="337.02" y="403.68"/><ellipse cx="440.7656" cy="419.68" fill="#ADD1B2" rx="11" ry="11" style="stroke:#181818;stroke-width:1;"/><path d="M443.7344,425.3206 Q443.1562,425.6175 442.5156,425.7581 Q441.875,425.9144 441.1719,425.9144 Q438.6719,425.9144 437.3437,424.2737 Q436.0312,422.6175 436.0312,419.4925 Q436.0312,416.3675 437.3437,414.7112 Q438.6719,413.055 441.1719,413.055 Q441.875,413.055 442.5156,413.2112 Q443.1719,413.3675 443.7344,413.6644 L443.7344,416.3831 Q443.1094,415.805 442.5156,415.5394 Q441.9219,415.2581 441.2969,415.2581 Q439.9531,415.2581 439.2656,416.3362 Q438.5781,417.3987 438.5781,419.4925 Q438.5781,421.5862 439.2656,422.6644 Q439.9531,423.7269 441.2969,423.7269 Q441.9219,423.7269 442.5156,423.4612 Q443.1094,423.18 443.7344,422.6019 L443.7344,425.3206 Z " fill="#000000"/><text fill="#000000" font-family="sans-serif" font-size="14" lengthAdjust="spacing" textLength="133.3623" x="461.2656" y="424.5267">TicketBookingPage</text><line style="stroke:#181818;stroke-width:0.5;" x1="338.02" x2="685.3735" y1="435.68" y2="435.68"/><ellipse cx="348.02" cy="449.3284" fill="#FFFFFF" fill-opacity="0.00000" rx="3" ry="3" style="stroke:#038048;stroke-width:1;"/><text fill="#000000" font-family="sans-serif" font-size="14" lengthAdjust="spacing" textLength="151.7646" x="357.02" y="452.6751">Booking Confirmation</text><ellipse cx="348.02" cy="465.6253" fill="#FFFFFF" fill-opacity="0.00000" rx="3" ry="3" style="stroke:#038048;stroke-width:1;"/><text fill="#000000" font-family="sans-serif" font-size="14" lengthAdjust="spacing" textLength="135.4678" x="357.02" y="468.972">Receipt Generation</text><line style="stroke:#181818;stroke-width:0.5;" x1="338.02" x2="685.3735" y1="476.2737" y2="476.2737"/><ellipse cx="348.02" cy="489.9222" fill="#84BE84" rx="3" ry="3" style="stroke:#038048;stroke-width:1;"/><text fill="#000000" font-family="sans-serif" font-size="14" lengthAdjust="spacing" textLength="232.6201" x="357.02" y="493.2689">Ticket Categories (VIP, Standard)</text><ellipse cx="348.02" cy="506.2191" fill="#84BE84" rx="3" ry="3" style="stroke:#038048;stroke-width:1;"/><text fill="#000000" font-family="sans-serif" font-size="14" lengthAdjust="spacing" textLength="323.3535" x="357.02" y="509.5657">Booking Form (Customer Details, Ticket Type)</text></g><!--class BookingManagementPage--><g id="elem_BookingManagementPage"><rect codeLine="39" fill="#F1F1F1" height="129.4844" id="BookingManagementPage" rx="2.5" ry="2.5" style="stroke:#181818;stroke-width:0.5;" width="247.1973" x="721.1" y="395.53"/><ellipse cx="750.482" cy="411.53" fill="#ADD1B2" rx="11" ry="11" style="stroke:#181818;stroke-width:1;"/><path d="M753.4507,417.1706 Q752.8726,417.4675 752.232,417.6081 Q751.5914,417.7644 750.8882,417.7644 Q748.3882,417.7644 747.0601,416.1238 Q745.7476,414.4675 745.7476,411.3425 Q745.7476,408.2175 747.0601,406.5613 Q748.3882,404.905 750.8882,404.905 Q751.5914,404.905 752.232,405.0613 Q752.8882,405.2175 753.4507,405.5144 L753.4507,408.2331 Q752.8257,407.655 752.232,407.3894 Q751.6382,407.1081 751.0132,407.1081 Q749.6695,407.1081 748.982,408.1863 Q748.2945,409.2488 748.2945,411.3425 Q748.2945,413.4363 748.982,414.5144 Q749.6695,415.5769 751.0132,415.5769 Q751.6382,415.5769 752.232,415.3113 Q752.8257,415.03 753.4507,414.4519 L753.4507,417.1706 Z " fill="#000000"/><text fill="#000000" font-family="sans-serif" font-size="14" lengthAdjust="spacing" textLength="183.2373" x="767.678" y="416.3767">BookingManagementPage</text><line style="stroke:#181818;stroke-width:0.5;" x1="722.1" x2="967.2973" y1="427.53" y2="427.53"/><ellipse cx="732.1" cy="441.1784" fill="#FFFFFF" fill-opacity="0.00000" rx="3" ry="3" style="stroke:#038048;stroke-width:1;"/><text fill="#000000" font-family="sans-serif" font-size="14" lengthAdjust="spacing" textLength="159.7148" x="741.1" y="444.5251">Cancel Booking Button</text><ellipse cx="732.1" cy="457.4753" fill="#FFFFFF" fill-opacity="0.00000" rx="3" ry="3" style="stroke:#038048;stroke-width:1;"/><text fill="#000000" font-family="sans-serif" font-size="14" lengthAdjust="spacing" textLength="101.2471" x="741.1" y="460.822">Refund Button</text><ellipse cx="732.1" cy="473.7722" fill="#FFFFFF" fill-opacity="0.00000" rx="3" ry="3" style="stroke:#038048;stroke-width:1;"/><text fill="#000000" font-family="sans-serif" font-size="14" lengthAdjust="spacing" textLength="139.3984" x="741.1" y="477.1189">Edit Booking Button</text><line style="stroke:#181818;stroke-width:0.5;" x1="722.1" x2="967.2973" y1="484.4206" y2="484.4206"/><ellipse cx="732.1" cy="498.0691" fill="#84BE84" rx="3" ry="3" style="stroke:#038048;stroke-width:1;"/><text fill="#000000" font-family="sans-serif" font-size="14" lengthAdjust="spacing" textLength="180.749" x="741.1" y="501.4157">Booking Overview (Table)</text><ellipse cx="732.1" cy="514.3659" fill="#84BE84" rx="3" ry="3" style="stroke:#038048;stroke-width:1;"/><text fill="#000000" font-family="sans-serif" font-size="14" lengthAdjust="spacing" textLength="221.1973" x="741.1" y="517.7126">Search/Filter (Customer, Event)</text></g><!--class SalesReportingPage--><g id="elem_SalesReportingPage"><rect codeLine="48" fill="#F1F1F1" height="113.1875" id="SalesReportingPage" rx="2.5" ry="2.5" style="stroke:#181818;stroke-width:0.5;" width="329.8232" x="1003.78" y="403.68"/><ellipse cx="1094.2058" cy="419.68" fill="#ADD1B2" rx="11" ry="11" style="stroke:#181818;stroke-width:1;"/><path d="M1097.1745,425.3206 Q1096.5964,425.6175 1095.9558,425.7581 Q1095.3152,425.9144 1094.612,425.9144 Q1092.112,425.9144 1090.7839,424.2737 Q1089.4714,422.6175 1089.4714,419.4925 Q1089.4714,416.3675 1090.7839,414.7112 Q1092.112,413.055 1094.612,413.055 Q1095.3152,413.055 1095.9558,413.2112 Q1096.612,413.3675 1097.1745,413.6644 L1097.1745,416.3831 Q1096.5495,415.805 1095.9558,415.5394 Q1095.362,415.2581 1094.737,415.2581 Q1093.3933,415.2581 1092.7058,416.3362 Q1092.0183,417.3987 1092.0183,419.4925 Q1092.0183,421.5862 1092.7058,422.6644 Q1093.3933,423.7269 1094.737,423.7269 Q1095.362,423.7269 1095.9558,423.4612 Q1096.5495,423.18 1097.1745,422.6019 L1097.1745,425.3206 Z " fill="#000000"/><text fill="#000000" font-family="sans-serif" font-size="14" lengthAdjust="spacing" textLength="140.4717" x="1114.7058" y="424.5267">SalesReportingPage</text><line style="stroke:#181818;stroke-width:0.5;" x1="1004.78" x2="1332.6032" y1="435.68" y2="435.68"/><line style="stroke:#181818;stroke-width:0.5;" x1="1004.78" x2="1332.6032" y1="443.68" y2="443.68"/><ellipse cx="1014.78" cy="457.3284" fill="#84BE84" rx="3" ry="3" style="stroke:#038048;stroke-width:1;"/><text fill="#000000" font-family="sans-serif" font-size="14" lengthAdjust="spacing" textLength="187.5303" x="1023.78" y="460.6751">Revenue Tracking (Charts)</text><ellipse cx="1014.78" cy="473.6253" fill="#84BE84" rx="3" ry="3" style="stroke:#038048;stroke-width:1;"/><text fill="#000000" font-family="sans-serif" font-size="14" lengthAdjust="spacing" textLength="262.4111" x="1023.78" y="476.972">Custom Reports (Filters: Date, Event)</text><ellipse cx="1014.78" cy="489.9222" fill="#84BE84" rx="3" ry="3" style="stroke:#038048;stroke-width:1;"/><text fill="#000000" font-family="sans-serif" font-size="14" lengthAdjust="spacing" textLength="303.8232" x="1023.78" y="493.2689">Sales Summary (Daily/Monthly Breakdown)</text><ellipse cx="1014.78" cy="506.2191" fill="#84BE84" rx="3" ry="3" style="stroke:#038048;stroke-width:1;"/><text fill="#000000" font-family="sans-serif" font-size="14" lengthAdjust="spacing" textLength="227.4932" x="1023.78" y="509.5657">Export Options (CSV, JSON, PDF)</text></g><!--class AdminUserManagementPage--><g id="elem_AdminUserManagementPage"><rect codeLine="56" fill="#F1F1F1" height="129.4844" id="AdminUserManagementPage" rx="2.5" ry="2.5" style="stroke:#181818;stroke-width:0.5;" width="254.8672" x="1368.26" y="395.53"/><ellipse cx="1391.9664" cy="411.53" fill="#ADD1B2" rx="11" ry="11" style="stroke:#181818;stroke-width:1;"/><path d="M1394.9352,417.1706 Q1394.3571,417.4675 1393.7164,417.6081 Q1393.0758,417.7644 1392.3727,417.7644 Q1389.8727,417.7644 1388.5446,416.1238 Q1387.2321,414.4675 1387.2321,411.3425 Q1387.2321,408.2175 1388.5446,406.5613 Q1389.8727,404.905 1392.3727,404.905 Q1393.0758,404.905 1393.7164,405.0613 Q1394.3727,405.2175 1394.9352,405.5144 L1394.9352,408.2331 Q1394.3102,407.655 1393.7164,407.3894 Q1393.1227,407.1081 1392.4977,407.1081 Q1391.1539,407.1081 1390.4664,408.1863 Q1389.7789,409.2488 1389.7789,411.3425 Q1389.7789,413.4363 1390.4664,414.5144 Q1391.1539,415.5769 1392.4977,415.5769 Q1393.1227,415.5769 1393.7164,415.3113 Q1394.3102,415.03 1394.9352,414.4519 L1394.9352,417.1706 Z " fill="#000000"/><text fill="#000000" font-family="sans-serif" font-size="14" lengthAdjust="spacing" textLength="203.5195" x="1407.9012" y="416.3767">AdminUserManagementPage</text><line style="stroke:#181818;stroke-width:0.5;" x1="1369.26" x2="1622.1272" y1="427.53" y2="427.53"/><ellipse cx="1379.26" cy="441.1784" fill="#FFFFFF" fill-opacity="0.00000" rx="3" ry="3" style="stroke:#038048;stroke-width:1;"/><text fill="#000000" font-family="sans-serif" font-size="14" lengthAdjust="spacing" textLength="128.0098" x="1388.26" y="444.5251">Add Admin Button</text><ellipse cx="1379.26" cy="457.4753" fill="#FFFFFF" fill-opacity="0.00000" rx="3" ry="3" style="stroke:#038048;stroke-width:1;"/><text fill="#000000" font-family="sans-serif" font-size="14" lengthAdjust="spacing" textLength="158.1016" x="1388.26" y="460.822">Remove Admin Button</text><ellipse cx="1379.26" cy="473.7722" fill="#FFFFFF" fill-opacity="0.00000" rx="3" ry="3" style="stroke:#038048;stroke-width:1;"/><text fill="#000000" font-family="sans-serif" font-size="14" lengthAdjust="spacing" textLength="106.0117" x="1388.26" y="477.1189">Edit User Roles</text><ellipse cx="1379.26" cy="490.0691" fill="#FFFFFF" fill-opacity="0.00000" rx="3" ry="3" style="stroke:#038048;stroke-width:1;"/><text fill="#000000" font-family="sans-serif" font-size="14" lengthAdjust="spacing" textLength="162.9414" x="1388.26" y="493.4157">Password Management</text><line style="stroke:#181818;stroke-width:0.5;" x1="1369.26" x2="1622.1272" y1="500.7175" y2="500.7175"/><ellipse cx="1379.26" cy="514.3659" fill="#84BE84" rx="3" ry="3" style="stroke:#038048;stroke-width:1;"/><text fill="#000000" font-family="sans-serif" font-size="14" lengthAdjust="spacing" textLength="228.8672" x="1388.26" y="517.7126">User List (Admins, Roles, Status)</text></g><!--class ImportExportPage--><g id="elem_ImportExportPage"><rect codeLine="65" fill="#F1F1F1" height="96.8906" id="ImportExportPage" rx="2.5" ry="2.5" style="stroke:#181818;stroke-width:0.5;" width="262.5986" x="1658.4" y="411.82"/><ellipse cx="1722.0426" cy="427.82" fill="#ADD1B2" rx="11" ry="11" style="stroke:#181818;stroke-width:1;"/><path d="M1725.0113,433.4606 Q1724.4332,433.7575 1723.7926,433.8981 Q1723.152,434.0544 1722.4488,434.0544 Q1719.9488,434.0544 1718.6207,432.4137 Q1717.3082,430.7575 1717.3082,427.6325 Q1717.3082,424.5075 1718.6207,422.8512 Q1719.9488,421.195 1722.4488,421.195 Q1723.152,421.195 1723.7926,421.3512 Q1724.4488,421.5075 1725.0113,421.8044 L1725.0113,424.5231 Q1724.3863,423.945 1723.7926,423.6794 Q1723.1988,423.3981 1722.5738,423.3981 Q1721.2301,423.3981 1720.5426,424.4762 Q1719.8551,425.5387 1719.8551,427.6325 Q1719.8551,429.7262 1720.5426,430.8044 Q1721.2301,431.8669 1722.5738,431.8669 Q1723.1988,431.8669 1723.7926,431.6012 Q1724.3863,431.32 1725.0113,430.7419 L1725.0113,433.4606 Z " fill="#000000"/><text fill="#000000" font-family="sans-serif" font-size="14" lengthAdjust="spacing" textLength="126.8135" x="1742.5426" y="432.6667">ImportExportPage</text><line style="stroke:#181818;stroke-width:0.5;" x1="1659.4" x2="1919.9986" y1="443.82" y2="443.82"/><ellipse cx="1669.4" cy="457.4684" fill="#FFFFFF" fill-opacity="0.00000" rx="3" ry="3" style="stroke:#038048;stroke-width:1;"/><text fill="#000000" font-family="sans-serif" font-size="14" lengthAdjust="spacing" textLength="196.7793" x="1678.4" y="460.8151">Automatic Backup Schedule</text><line style="stroke:#181818;stroke-width:0.5;" x1="1659.4" x2="1919.9986" y1="468.1169" y2="468.1169"/><ellipse cx="1669.4" cy="481.7653" fill="#84BE84" rx="3" ry="3" style="stroke:#038048;stroke-width:1;"/><text fill="#000000" font-family="sans-serif" font-size="14" lengthAdjust="spacing" textLength="198.249" x="1678.4" y="485.112">Import Function (CSV, JSON)</text><ellipse cx="1669.4" cy="498.0622" fill="#84BE84" rx="3" ry="3" style="stroke:#038048;stroke-width:1;"/><text fill="#000000" font-family="sans-serif" font-size="14" lengthAdjust="spacing" textLength="236.5986" x="1678.4" y="501.4089">Export Function (Reports, Events)</text></g><!--link AdminLoginPage to DashboardPage--><g id="link_AdminLoginPage_DashboardPage"><path codeLine="72" d="M1006.7,136.98 C1006.7,161.9 1006.7,183.93 1006.7,207.03 " fill="#FFFFFF" fill-opacity="0.00000" id="AdminLoginPage-to-DashboardPage" style="stroke:#181818;stroke-width:1;"/><polygon fill="#181818" points="1006.7,213.03,1010.7,204.03,1006.7,208.03,1002.7,204.03,1006.7,213.03" style="stroke:#181818;stroke-width:1;"/><text fill="#000000" font-family="sans-serif" font-size="13" lengthAdjust="spacing" textLength="108.1895" x="1007.7" y="179.5569">Login Successful</text></g><!--link DashboardPage to EventManagementPage--><g id="link_DashboardPage_EventManagementPage"><path codeLine="73" d="M828.37,279.66 C720.44,291.88 580.57,311.43 458.7,340.38 C395.25,355.45 380.53,363.89 319.7,387.38 C314.16,389.52 314.0968,389.4915 308.4268,391.7715 " fill="#FFFFFF" fill-opacity="0.00000" id="DashboardPage-to-EventManagementPage" style="stroke:#181818;stroke-width:1;"/><polygon fill="#181818" points="302.86,394.01,312.7025,394.3634,307.499,392.1446,309.7179,386.9411,302.86,394.01" style="stroke:#181818;stroke-width:1;"/><text fill="#000000" font-family="sans-serif" font-size="13" lengthAdjust="spacing" textLength="206.6353" x="459.7" y="353.4469">Navigate to Event Management</text></g><!--link DashboardPage to TicketBookingPage--><g id="link_DashboardPage_TicketBookingPage"><path codeLine="74" d="M828.37,300.03 C787.94,310.92 745.74,324.32 707.7,340.38 C667.73,357.25 631.3117,378.0627 596.8717,400.1327 " fill="#FFFFFF" fill-opacity="0.00000" id="DashboardPage-to-TicketBookingPage" style="stroke:#181818;stroke-width:1;"/><polygon fill="#181818" points="591.82,403.37,601.5558,401.8819,596.0298,400.6723,597.2394,395.1463,591.82,403.37" style="stroke:#181818;stroke-width:1;"/><text fill="#000000" font-family="sans-serif" font-size="13" lengthAdjust="spacing" textLength="175.5381" x="708.7" y="353.4469">Navigate to Ticket Booking</text></g><!--link DashboardPage to BookingManagementPage--><g id="link_DashboardPage_BookingManagementPage"><path codeLine="75" d="M933.12,310.66 C922.13,319.71 911.53,329.72 902.7,340.38 C889.28,356.55 880.6217,370.9391 871.7217,389.6991 " fill="#FFFFFF" fill-opacity="0.00000" id="DashboardPage-to-BookingManagementPage" style="stroke:#181818;stroke-width:1;"/><polygon fill="#181818" points="869.15,395.12,876.6216,388.7032,871.2931,390.6026,869.3937,385.2742,869.15,395.12" style="stroke:#181818;stroke-width:1;"/><text fill="#000000" font-family="sans-serif" font-size="13" lengthAdjust="spacing" textLength="221.8506" x="903.7" y="353.4469">Navigate to Booking Management</text></g><!--link DashboardPage to SalesReportingPage--><g id="link_DashboardPage_SalesReportingPage"><path codeLine="76" d="M1099,310.72 C1110.41,319.45 1121.08,329.34 1129.7,340.38 C1143.87,358.53 1151.4092,376.242 1157.2292,397.552 " fill="#FFFFFF" fill-opacity="0.00000" id="DashboardPage-to-SalesReportingPage" style="stroke:#181818;stroke-width:1;"/><polygon fill="#181818" points="1158.81,403.34,1160.2975,393.6041,1157.4927,398.5167,1152.5802,395.7118,1158.81,403.34" style="stroke:#181818;stroke-width:1;"/><text fill="#000000" font-family="sans-serif" font-size="13" lengthAdjust="spacing" textLength="182.1396" x="1142.7" y="353.4469">Navigate to Sales Reporting</text></g><!--link DashboardPage to AdminUserManagementPage--><g id="link_DashboardPage_AdminUserManagementPage"><path codeLine="77" d="M1184.98,291.59 C1234.49,303.14 1287.35,318.97 1333.7,340.38 C1364.41,354.57 1390.3347,371.4472 1416.6247,391.4472 " fill="#FFFFFF" fill-opacity="0.00000" id="DashboardPage-to-AdminUserManagementPage" style="stroke:#181818;stroke-width:1;"/><polygon fill="#181818" points="1421.4,395.08,1416.659,386.4474,1417.4206,392.0527,1411.8153,392.8144,1421.4,395.08" style="stroke:#181818;stroke-width:1;"/><text fill="#000000" font-family="sans-serif" font-size="13" lengthAdjust="spacing" textLength="199.0244" x="1364.7" y="353.4469">Navigate to User Management</text></g><!--link DashboardPage to ImportExportPage--><g id="link_DashboardPage_ImportExportPage"><path codeLine="78" d="M1185.09,270.67 C1298.44,279.63 1446.95,298.9 1572.7,340.38 C1624.1,357.33 1672.3573,383.2599 1713.3073,408.4099 " fill="#FFFFFF" fill-opacity="0.00000" id="DashboardPage-to-ImportExportPage" style="stroke:#181818;stroke-width:1;"/><polygon fill="#181818" points="1718.42,411.55,1712.8443,403.4314,1714.1594,408.9333,1708.6575,410.2484,1718.42,411.55" style="stroke:#181818;stroke-width:1;"/><text fill="#000000" font-family="sans-serif" font-size="13" lengthAdjust="spacing" textLength="169.7046" x="1610.7" y="353.4469">Navigate to Import/Export</text></g><!--SRC=[VLHDR-903BtdLxYNBjLIzTx3IX2WOjLIbB2zJoS6HYGpqSm45gtslw_dWuO4s0iAjkVvsS_sNO5h8H6oQReQBLvUfy1BPano5-tfF4l9AAH5lMOSa-GRZ8fAI7XL6_fTiWqcxMFlyXxdW3y9mFTV1hLa5S9CO5auov8o79GkMai06pVMAjc9oD2WXLSXTyuyrLffU4DZ2DqaVnsR2JFRJyKergSS78JTmbm-ZkeQ5igAjU3C2YNDmndFhqSjpGNRYusFf0IoYQnKOyzedUCHAMDXyAlcYchUm7IFqWvXgR5csaSy18BU0MzCKghAVVPwvlsjksKK7eOqA_PP8dm8F3muLuvCyotSKmTBKWO64sPn22jarP2KuJ4_HQOQoHL9j9LC2s4lZ1CiyLgi_pz1oqHfOAPq5GfR2RuZSSPAxLm3UcK5RtIsHSL7AP7QA2tGmE1ZlXn2RfaiI11F-WJfSi4WROnL5LKPAGnFcLV76ZlngP9heIjVlRDdo57K5bvGOj0aC3_5tnObHboJvVJuVOzwJu94SSvqUJgfSc8-33qDWZ39iVoYqBOvmtKZYxv6lJXFFsSbzIt3McdhVFSmagmyMi5DlmuV-XNP5f4X4MeGLffnZpz8jqnR4oXwsZ412HJACSyGfgoj9H39cwfY-kY6K9J7fpSbxROymfWcRrUeGvZ3wMy71k-rtqLAbtyCuMV-lg2LcSpYgeJBuWx6VwJnGIxccZZ-RLWP7qV3aYaYwGVCDg6-KL74LEVThzGUBynU0m_gOJgtgSqVsCyhL-9JhBJ7EZY3hwKRh31h9FStfMtBUTDQTvGaQX2hQKWi6cuEOzAogI7dMooQ4WEh3Cjm_xQYDl29ze0OxhP9UkVwqQdr-ADt7P_ZgSyRpkdohfiowGQSdbqxPCyGxog2LHUdy0RGvUdemdGFpmsGwnlS1Rgy0pV0hgnH5wctaZTWRerk5wit_pUmBWQg2z8Pndy0]--></g></svg>